<svg width="129" height="20" viewBox="0 0 129 20" fill="none" xmlns="http://www.w3.org/2000/svg">
<path d="M1.77837 1.49709L1.22869 1.074L1.9077 1.04145L2.13404 0.42309L2.36038 1.074L3.03939 1.10654L2.52205 1.49709L2.71605 2.148L2.13404 1.75745L1.58436 2.148L1.77837 1.49709ZM4.62375 1.49709L4.10641 1.074L4.78542 1.04145L5.01176 0.42309L5.2381 1.074L5.91711 1.10654L5.39977 1.52963L5.59377 2.18054L5.04409 1.79L4.49441 2.18054L4.62375 1.49709ZM7.46914 1.49709L6.95179 1.074L7.63081 1.04145L7.85714 0.42309L8.08348 1.074L8.76249 1.10654L8.24515 1.52963L8.43915 2.18054L7.88948 1.79L7.3398 2.18054L7.46914 1.49709ZM10.3469 1.49709L9.82951 1.074L10.5085 1.04145L10.7349 0.42309L10.9612 1.074L11.6402 1.10654L11.1229 1.52963L11.3169 2.18054L10.7672 1.79L10.2175 2.18054L10.3469 1.49709ZM13.1922 1.49709L12.6749 1.074L13.3539 1.04145L13.5802 0.42309L13.8066 1.074L14.4856 1.10654L13.9683 1.52963L14.1623 2.18054L13.6126 1.79L13.0629 2.18054L13.1922 1.49709ZM0 0V2.66872H6.36978V7.84344L7.85714 9.04762L9.3445 7.84344V2.66872H15.7143V0H0Z" fill="white"/>
<path d="M5.2381 3.80951H0V7.14284H5.2381V3.80951Z" fill="#A80F14"/>
<path d="M0 7.20184L7.61905 14.7619V11.3696L0 3.80951V7.20184Z" fill="#ED1C24"/>
<path d="M0 12.4076L7.61905 20V16.6077L0 9.04761V12.4076Z" fill="#ED1C24"/>
<path d="M15.7142 3.80951H10.4761V7.14284H15.7142V3.80951Z" fill="#ED1C24"/>
<path d="M15.7144 3.80951L7.61914 11.3696V14.7619L15.7144 7.20184V3.80951Z" fill="#A80F14"/>
<path d="M7.61914 16.6077V20L15.7144 12.4076V9.04761L7.61914 16.6077Z" fill="#A80F14"/>
<path d="M53.4214 8.3641C53.1642 8.20339 52.8749 8.07482 52.5857 7.94624C52.3285 7.84982 52.0714 7.75339 51.7499 7.65696C51.4607 7.56053 51.1392 7.52839 50.8499 7.52839C50.6249 7.52839 50.4321 7.56053 50.2714 7.62482C50.1428 7.6891 50.0464 7.81767 50.0464 7.97839C50.0464 8.10696 50.0785 8.20339 50.1749 8.26767C50.2714 8.33196 50.3678 8.42839 50.5285 8.46053C50.6892 8.52482 50.8821 8.5891 51.1071 8.65339C51.3321 8.71767 51.5892 8.78196 51.8785 8.87839C52.3285 9.00696 52.7142 9.13553 53.0999 9.29624C53.4535 9.45696 53.7749 9.61767 54.0321 9.84267C54.2892 10.0355 54.4821 10.2927 54.6107 10.582C54.7392 10.8712 54.8035 11.2248 54.8035 11.6427C54.8035 12.1891 54.7071 12.6391 54.4821 12.9927C54.2571 13.3462 53.9999 13.6677 53.6464 13.8605C53.2928 14.0855 52.9071 14.2462 52.4571 14.3427C52.0071 14.4391 51.5571 14.5034 51.1392 14.5034C50.7857 14.5034 50.4321 14.4712 50.0464 14.4391C49.6607 14.3748 49.3071 14.3105 48.9214 14.2141C48.5678 14.1177 48.2142 14.0212 47.8607 13.8927C47.5071 13.7641 47.2178 13.6355 46.9285 13.4748L48.0857 11.3212C48.4071 11.5141 48.7285 11.6748 49.0821 11.8034C49.3714 11.932 49.6928 12.0284 50.0785 12.157C50.4321 12.2534 50.8178 12.3177 51.2035 12.3177C51.4928 12.3177 51.6857 12.2855 51.8142 12.2212C51.9428 12.157 51.9749 12.0605 51.9749 11.932C51.9749 11.8034 51.9107 11.707 51.8142 11.6105C51.6857 11.5141 51.5571 11.4498 51.3321 11.3855C51.1392 11.3212 50.9142 11.257 50.6571 11.1927C50.3999 11.1284 50.1107 11.032 49.8214 10.9677C49.4035 10.8391 49.0178 10.6784 48.7285 10.5177C48.4071 10.357 48.1499 10.1962 47.9571 9.97124C47.7642 9.77839 47.6035 9.55339 47.5071 9.29624C47.4107 9.0391 47.3785 8.74982 47.3785 8.42839C47.3785 7.94624 47.4749 7.49624 47.6678 7.11053C47.8607 6.72482 48.1178 6.40339 48.4714 6.14625C48.7928 5.8891 49.1785 5.69625 49.6285 5.56767C50.0464 5.4391 50.5285 5.37482 51.0107 5.37482C51.3642 5.37482 51.7178 5.40696 52.0392 5.47125C52.3607 5.53553 52.7142 5.59982 53.0035 5.69625C53.3249 5.79267 53.6142 5.8891 53.8714 6.01767C54.1285 6.14625 54.3857 6.24267 54.6107 6.3391L53.4214 8.3641ZM46.5749 7.56053H43.7785V14.3748H41.1428V7.56053H38.3464V5.40696H46.5749V7.56053ZM37.7999 12.2534V14.407H30.8892V5.4391H37.6714V7.59267H33.5571V8.84624H37.0607V10.8391H33.5571V12.2534H37.7999ZM23.5928 5.4391L25.4892 11.3212L27.3535 5.4391H30.15L26.5821 14.407H24.3642L20.7964 5.4391H23.5928Z" fill="white"/>
<path d="M94.0818 13.893C93.6318 14.3108 93.1496 14.5037 92.5711 14.5037C92.1853 14.5037 91.8318 14.4394 91.5104 14.2787C91.1889 14.118 90.8675 13.9251 90.6425 13.668C90.3853 13.4108 90.1925 13.0894 90.0318 12.7037C89.8711 12.3501 89.8068 11.9323 89.8068 11.4823C89.8068 11.0966 89.8711 10.7108 90.0318 10.3573C90.1925 10.0037 90.3853 9.68227 90.6425 9.42513C90.8996 9.16799 91.1889 8.94299 91.5425 8.81442C91.8961 8.6537 92.2818 8.58942 92.6675 8.58942C93.2139 8.58942 93.6639 8.71799 94.0818 8.94299C94.4675 9.16799 94.7889 9.48942 94.9818 9.87513L93.9853 10.6144C93.8568 10.3573 93.6639 10.1323 93.4068 10.0037C93.1496 9.84299 92.8925 9.7787 92.6032 9.7787C92.3782 9.7787 92.1854 9.81084 91.9925 9.90727C91.7996 10.0037 91.6711 10.1323 91.5425 10.293C91.4139 10.4537 91.3175 10.6466 91.2532 10.8716C91.1889 11.0966 91.1568 11.3216 91.1568 11.5466C91.1568 11.8037 91.1889 12.0287 91.2853 12.2537C91.3496 12.4787 91.4782 12.6394 91.6068 12.8001C91.7353 12.9608 91.8961 13.0894 92.0889 13.1537C92.2818 13.2501 92.4746 13.2823 92.6996 13.2823C93.2139 13.2823 93.6961 13.0251 94.1139 12.543V12.3501H92.9889V11.3858H95.2068V14.4394H94.1139L94.0818 13.893ZM85.3389 11.1287V14.4716H84.0211V8.6537H85.0496L87.7175 12.0608V8.6537H89.0354V14.4716H87.9746L85.3389 11.1287ZM81.5782 8.6537H82.8961V14.4716H81.5782V8.6537ZM80.9354 9.81084V8.62156H76.1139V9.81084H77.8818V14.4716H79.1996V9.81084H80.9354ZM74.5068 12.2537L73.8318 10.1966L73.1568 12.2537H74.5068ZM73.2532 8.6537H74.4425L76.5318 14.4716H75.1818L74.7318 13.1537H72.9639L72.5139 14.4716H71.1639L73.2532 8.6537ZM70.8746 13.2823V14.4716H66.8246V8.6537H70.7782V9.84299H68.1425V10.968H70.4246V12.0608H68.1425V13.3144H70.8746V13.2823ZM62.7425 11.418H63.9639C64.1246 11.418 64.2532 11.3537 64.3818 11.193C64.5104 11.0323 64.5425 10.8394 64.5425 10.6144C64.5425 10.3894 64.4782 10.1966 64.3496 10.0358C64.2211 9.90727 64.0925 9.81084 63.9318 9.81084H62.7425V11.418ZM61.4247 14.4716V8.6537H64.0282C64.2854 8.6537 64.5425 8.71799 64.7675 8.81442C64.9925 8.94299 65.1854 9.07156 65.3782 9.26442C65.5389 9.45727 65.6675 9.65013 65.7639 9.90727C65.8604 10.1323 65.8925 10.3894 65.8925 10.6144C65.8925 10.8073 65.8604 10.968 65.8282 11.1287C65.7961 11.2894 65.7318 11.4501 65.6354 11.6108C65.5389 11.7716 65.4425 11.9001 65.3461 11.9966C65.2175 12.1251 65.0889 12.2216 64.9604 12.2858L66.2139 14.4394H64.7032L63.6104 12.543H62.7425V14.4394H61.4247V14.4716ZM60.7818 9.81084H59.0461V14.4716H57.7282V9.81084H55.9282V8.62156H60.7496V9.81084H60.7818Z" fill="white"/>
<path d="M127.189 8.36441C126.932 8.20369 126.642 8.07512 126.353 7.94655C126.096 7.85012 125.839 7.75369 125.517 7.65726C125.228 7.56084 124.907 7.52869 124.617 7.52869C124.392 7.52869 124.2 7.56084 124.039 7.62512C123.91 7.68941 123.814 7.81798 123.814 7.97869C123.814 8.10726 123.846 8.20369 123.942 8.26798C124.039 8.33226 124.135 8.42869 124.296 8.46083C124.457 8.52512 124.65 8.58941 124.875 8.65369C125.1 8.71798 125.357 8.78226 125.646 8.87869C126.096 9.00726 126.482 9.13583 126.867 9.29655C127.221 9.45726 127.542 9.61798 127.8 9.84298C128.057 10.0358 128.25 10.293 128.378 10.5823C128.507 10.8715 128.571 11.2251 128.571 11.643C128.571 12.1894 128.475 12.6394 128.25 12.993C128.025 13.3465 127.767 13.668 127.414 13.8608C127.06 14.0858 126.675 14.2465 126.225 14.343C125.775 14.4394 125.357 14.5037 124.907 14.5037C124.553 14.5037 124.2 14.4715 123.814 14.4394C123.428 14.3751 123.075 14.3108 122.689 14.2144C122.335 14.118 121.982 14.0215 121.628 13.893C121.275 13.7644 120.985 13.6358 120.664 13.4751L121.821 11.3215C122.142 11.5144 122.464 11.6751 122.817 11.8037C123.107 11.9323 123.428 12.0287 123.814 12.1573C124.167 12.2537 124.553 12.318 124.939 12.318C125.228 12.318 125.421 12.2858 125.55 12.2215C125.678 12.1573 125.71 12.0608 125.71 11.9323C125.71 11.8037 125.646 11.7073 125.55 11.6108C125.421 11.5144 125.292 11.4501 125.067 11.3858C124.875 11.3215 124.65 11.2573 124.392 11.193C124.135 11.1287 123.846 11.0323 123.557 10.968C123.139 10.8394 122.753 10.6787 122.464 10.518C122.142 10.3573 121.885 10.1965 121.692 9.97155C121.5 9.77869 121.339 9.55369 121.242 9.29655C121.146 9.03941 121.114 8.75012 121.114 8.42869C121.114 7.94655 121.21 7.49655 121.403 7.11084C121.596 6.72512 121.853 6.40369 122.207 6.14655C122.528 5.88941 122.914 5.69655 123.364 5.56798C123.782 5.43941 124.264 5.37512 124.746 5.37512C125.1 5.37512 125.453 5.40726 125.775 5.47155C126.096 5.53584 126.45 5.60012 126.739 5.69655C127.06 5.79298 127.35 5.88941 127.607 6.01798C127.864 6.14655 128.121 6.24298 128.346 6.33941L127.189 8.36441ZM120.342 7.56084H117.546V14.3751H114.878V7.56084H112.082V5.40727H120.31V7.56084H120.342ZM111.567 12.2537V14.4073H104.657V5.43941H111.439V7.59298H107.325V8.84655H110.828V10.8394H107.325V12.2537H111.567ZM97.3603 5.43941L99.2567 11.3215L101.121 5.43941H103.917L100.35 14.4073H98.1317L94.5317 5.43941H97.3603Z" fill="white"/>
</svg>
